<?xml version="1.0" standalone="no"?>
<!DOCTYPE svg PUBLIC "-//W3C//DTD SVG 20010904//EN"
 "http://www.w3.org/TR/2001/REC-SVG-20010904/DTD/svg10.dtd">
<svg version="1.0" xmlns="http://www.w3.org/2000/svg"
 width="360.000000pt" height="70.000000pt" viewBox="0 0 360.000000 70.000000"
 preserveAspectRatio="xMidYMid meet">

<g transform="translate(0.000000,70.000000) scale(0.100000,-0.100000)"
fill="#000000" stroke="none">
<path d="M2420 681 c0 -5 7 -14 15 -21 18 -15 55 -4 55 17 0 13 -3 13 -16 2
-12 -10 -20 -10 -35 -1 -10 7 -19 8 -19 3z"/>
<path d="M750 490 c0 -143 1 -150 20 -150 18 0 20 7 20 64 0 105 38 103 47 -3
5 -52 9 -61 26 -61 18 0 19 5 14 59 -2 32 -11 70 -19 86 -13 24 -13 31 4 63
24 49 24 92 -1 92 -14 0 -20 -10 -24 -40 -3 -23 -13 -53 -24 -68 l-18 -27 -3
68 c-3 59 -5 67 -22 67 -19 0 -20 -8 -20 -150z"/>
<path d="M940 490 c0 -143 1 -150 20 -150 17 0 20 7 20 45 0 43 1 45 28 45 16
0 36 8 44 18 22 25 30 86 18 132 -12 45 -36 60 -96 60 l-34 0 0 -150z m85 40
c0 -48 -2 -55 -20 -55 -17 0 -20 8 -23 58 -3 56 -2 58 20 55 21 -3 23 -8 23
-58z"/>
<path d="M1140 490 c0 -138 1 -150 18 -150 12 0 27 19 44 53 l27 52 0 -52 c1
-46 4 -53 21 -53 19 0 20 7 20 150 0 139 -1 150 -19 150 -15 0 -19 -11 -24
-69 -3 -39 -15 -89 -26 -113 l-19 -43 -1 113 c-1 105 -2 112 -21 112 -19 0
-20 -7 -20 -150z"/>
<path d="M1367 633 c-18 -5 -37 -40 -37 -69 0 -8 10 -14 25 -14 19 0 25 5 25
21 0 31 34 20 38 -13 2 -19 -2 -28 -17 -33 -27 -8 -27 -41 0 -48 17 -5 20 -12
17 -44 -4 -50 -35 -60 -44 -14 -5 21 -12 31 -25 31 -15 0 -19 -7 -19 -33 0
-48 21 -71 63 -71 19 0 42 6 51 13 24 20 30 73 12 116 -11 26 -13 42 -6 49 14
14 13 81 -3 94 -16 14 -57 21 -80 15z"/>
<path d="M1530 490 c0 -138 1 -150 18 -150 12 0 27 19 44 53 l27 52 0 -52 c1
-46 4 -53 21 -53 19 0 20 7 20 150 0 139 -1 150 -19 150 -15 0 -19 -11 -24
-69 -3 -39 -15 -89 -26 -113 l-19 -43 -1 113 c-1 105 -2 112 -21 112 -19 0
-20 -7 -20 -150z"/>
<path d="M1745 615 c-23 -22 -25 -31 -25 -125 0 -95 2 -102 26 -126 19 -20 31
-24 52 -19 39 9 51 25 58 78 7 46 6 47 -20 47 -23 0 -26 -4 -26 -35 0 -23 -6
-38 -16 -42 -25 -9 -34 16 -34 97 0 41 4 81 9 89 15 23 41 5 41 -29 0 -26 4
-30 26 -30 26 0 26 2 20 43 -11 73 -65 98 -111 52z"/>
<path d="M1910 490 l0 -150 25 0 c24 0 25 2 25 70 0 63 2 70 20 70 18 0 20 -7
20 -70 0 -68 1 -70 25 -70 l25 0 0 150 0 150 -25 0 c-24 0 -25 -3 -25 -55 0
-48 -2 -55 -20 -55 -18 0 -20 7 -20 55 0 52 -1 55 -25 55 l-25 0 0 -150z"/>
<path d="M2110 490 l0 -150 38 0 c65 0 81 9 92 51 12 45 4 103 -17 124 -8 8
-28 15 -44 15 -29 0 -29 1 -29 55 0 48 -2 55 -20 55 -19 0 -20 -7 -20 -150z
m88 -52 c-2 -36 -7 -44 -25 -46 -21 -3 -23 1 -23 42 0 43 2 46 26 46 23 0 25
-3 22 -42z"/>
<path d="M2280 490 c0 -143 1 -150 20 -150 19 0 20 7 20 150 0 143 -1 150 -20
150 -19 0 -20 -7 -20 -150z"/>
<path d="M2390 490 c0 -145 1 -150 21 -150 15 0 26 14 44 53 l24 52 0 -52 c1
-46 4 -53 21 -53 19 0 20 7 20 150 0 140 -1 150 -19 150 -16 0 -19 -10 -23
-72 -3 -41 -13 -91 -24 -113 l-19 -40 -3 113 c-2 104 -4 112 -22 112 -19 0
-20 -7 -20 -150z"/>
<path d="M2690 490 l0 -150 60 0 c53 0 60 -2 60 -20 0 -11 7 -20 15 -20 11 0
15 12 15 45 0 25 -4 45 -10 45 -6 0 -10 48 -10 125 0 118 -1 125 -20 125 -19
0 -20 -7 -20 -125 l0 -125 -25 0 -25 0 0 125 c0 118 -1 125 -20 125 -19 0 -20
-7 -20 -150z"/>
<path d="M2890 490 l0 -150 50 0 c47 0 50 2 50 25 0 21 -5 25 -30 25 -29 0
-30 2 -30 45 0 43 1 45 30 45 25 0 30 4 30 25 0 21 -5 25 -30 25 -27 0 -30 3
-30 30 0 27 3 30 30 30 25 0 30 4 30 25 0 23 -3 25 -50 25 l-50 0 0 -150z"/>
<path d="M3050 490 c0 -143 1 -150 20 -150 18 0 20 7 20 70 0 68 1 70 25 70
24 0 25 -2 25 -70 0 -63 2 -70 20 -70 19 0 20 7 20 150 0 143 -1 150 -20 150
-18 0 -20 -7 -20 -55 0 -52 -1 -55 -25 -55 -24 0 -25 3 -25 55 0 48 -2 55 -20
55 -19 0 -20 -7 -20 -150z"/>
<path d="M3230 615 c0 -18 5 -25 20 -25 19 0 20 -7 20 -125 0 -118 1 -125 20
-125 19 0 20 7 20 125 0 118 1 125 20 125 15 0 20 7 20 25 0 24 -3 25 -60 25
-57 0 -60 -1 -60 -25z"/>
<path d="M3400 490 c0 -143 1 -150 20 -150 17 0 20 7 20 45 0 43 1 45 29 45
43 0 61 31 61 106 0 56 -3 65 -26 83 -17 13 -41 21 -65 21 l-39 0 0 -150z m78
88 c17 -17 15 -83 -3 -98 -24 -20 -35 -2 -35 56 0 55 12 68 38 42z"/>
<path d="M371 388 c-15 -33 -20 -38 -20 -20 -1 12 -7 22 -15 22 -9 0 -12 -7
-9 -20 4 -16 2 -19 -13 -14 -11 4 -16 4 -12 -1 4 -4 0 -14 -10 -21 -16 -12
-16 -13 1 -31 9 -11 17 -25 17 -31 0 -21 47 -13 62 11 23 35 29 70 12 63 -17
-7 -17 -8 1 43 18 53 11 53 -14 -1z"/>
<path d="M384 255 c3 -9 -3 -23 -14 -32 -15 -13 -20 -30 -20 -71 0 -44 -2 -51
-13 -40 -8 7 -17 31 -20 53 -4 22 -11 41 -17 43 -5 2 -10 15 -10 28 0 36 -17
29 -30 -13 -7 -21 -16 -42 -21 -48 -12 -12 -11 -28 1 -20 6 3 7 -1 4 -9 -3 -9
-11 -13 -18 -9 -6 3 -4 -2 6 -13 9 -10 20 -44 26 -74 8 -47 10 -50 12 -20 1
29 3 32 10 15 8 -19 9 -19 9 2 1 12 -3 24 -9 28 -6 4 -6 15 0 31 6 14 10 39
10 55 0 19 4 28 11 23 6 -3 9 -22 7 -40 -2 -19 0 -34 4 -34 4 0 7 -3 7 -7 -4
-22 3 -96 8 -85 4 10 8 9 18 -5 11 -15 12 -12 5 25 -4 23 -3 45 1 48 5 3 10
20 10 37 1 25 3 21 10 -18 15 -82 19 -96 28 -91 4 3 6 20 5 38 -3 33 -3 33 7
-5 6 -20 15 -37 21 -37 5 0 7 8 4 18 -2 9 -8 46 -11 81 -6 50 -5 62 5 56 18
-11 3 47 -16 61 -7 6 -14 19 -14 28 0 9 -5 16 -11 16 -6 0 -9 -7 -5 -15z"/>
<path d="M740 130 c0 -73 3 -90 15 -90 12 0 15 15 15 75 0 60 3 75 15 75 12 0
15 -15 15 -75 0 -43 4 -75 10 -75 6 0 10 37 10 90 l0 90 -40 0 -40 0 0 -90z"/>
<path d="M872 208 c-15 -15 -16 -122 -2 -149 12 -21 40 -25 58 -7 12 12 17
124 6 152 -7 19 -45 21 -62 4z m48 -79 c0 -52 -2 -60 -17 -57 -13 2 -19 15
-21 47 -4 52 2 71 23 71 12 0 15 -13 15 -61z"/>
<path d="M980 130 c0 -73 3 -90 15 -90 12 0 15 15 15 78 1 72 2 75 15 52 8
-14 14 -49 15 -77 0 -29 5 -53 10 -53 6 0 10 20 10 44 0 48 17 106 31 106 5 0
9 -34 9 -75 0 -43 4 -75 10 -75 6 0 10 37 10 91 0 88 -1 90 -22 87 -12 -2 -28
-14 -35 -27 l-12 -25 -12 27 c-8 18 -20 27 -36 27 -22 0 -23 -2 -23 -90z"/>
<path d="M1166 204 c-11 -28 -6 -140 6 -152 18 -18 46 -14 58 7 14 27 13 134
-2 149 -17 17 -55 15 -62 -4z m49 -74 c0 -44 -3 -55 -17 -58 -16 -3 -18 5 -18
58 0 53 2 61 18 58 14 -3 17 -14 17 -58z"/>
<path d="M1280 130 l0 -90 60 0 c47 0 60 -3 60 -15 0 -8 5 -15 10 -15 6 0 10
13 10 30 0 17 -4 30 -10 30 -6 0 -10 32 -10 75 0 43 -4 75 -10 75 -6 0 -10
-32 -10 -75 0 -60 -3 -75 -15 -75 -12 0 -15 15 -15 75 0 43 -4 75 -10 75 -6 0
-10 -32 -10 -75 0 -60 -3 -75 -15 -75 -12 0 -15 15 -15 75 0 43 -4 75 -10 75
-6 0 -10 -37 -10 -90z"/>
<path d="M1450 130 c0 -99 13 -117 43 -57 l16 32 0 -32 c1 -18 6 -33 11 -33 6
0 10 37 10 90 0 53 -4 90 -10 90 -5 0 -10 -12 -10 -26 0 -35 -21 -104 -32
-104 -4 0 -8 29 -8 65 0 37 -4 65 -10 65 -6 0 -10 -37 -10 -90z"/>
<path d="M1636 193 c9 -34 9 -66 -1 -115 -5 -24 -4 -38 2 -38 6 0 14 18 19 41
12 53 28 54 32 2 2 -24 7 -43 12 -43 5 0 10 19 12 42 4 56 22 56 26 0 2 -29 8
-42 18 -42 12 0 13 8 8 38 -4 20 -10 43 -14 51 -4 8 -1 29 6 47 17 42 17 44
-1 44 -8 0 -15 -9 -15 -19 0 -26 -10 -51 -21 -51 -5 0 -9 16 -9 35 0 50 -18
44 -22 -7 l-4 -43 -19 43 c-20 47 -42 58 -29 15z"/>
<path d="M1810 130 l0 -90 30 0 c20 0 30 5 30 15 0 8 -9 15 -20 15 -15 0 -20
7 -20 25 0 18 5 25 20 25 11 0 20 7 20 15 0 8 -9 15 -20 15 -13 0 -20 7 -20
20 0 13 7 20 20 20 11 0 20 7 20 15 0 10 -10 15 -30 15 l-30 0 0 -90z"/>
<path d="M1910 130 c0 -53 4 -90 10 -90 6 0 10 18 10 40 0 29 4 40 15 40 11 0
15 -11 15 -40 0 -29 4 -40 15 -40 12 0 15 17 15 90 0 73 -3 90 -15 90 -10 0
-15 -11 -15 -35 0 -24 -5 -35 -15 -35 -10 0 -15 11 -15 35 0 19 -4 35 -10 35
-6 0 -10 -37 -10 -90z"/>
<path d="M2030 130 l0 -90 60 0 c47 0 60 -3 60 -15 0 -8 5 -15 10 -15 6 0 10
13 10 30 0 17 -4 30 -10 30 -6 0 -10 32 -10 75 0 43 -4 75 -10 75 -6 0 -10
-32 -10 -75 0 -60 -3 -75 -15 -75 -12 0 -15 15 -15 75 0 43 -4 75 -10 75 -6 0
-10 -32 -10 -75 0 -60 -3 -75 -15 -75 -12 0 -15 15 -15 75 0 43 -4 75 -10 75
-6 0 -10 -37 -10 -90z"/>
<path d="M2200 130 c0 -52 4 -90 10 -90 5 0 17 15 27 32 l18 33 3 -32 c2 -18
7 -33 13 -33 5 0 9 40 9 90 0 98 -15 121 -26 40 -4 -27 -13 -58 -20 -67 -12
-16 -13 -9 -14 50 0 38 -4 67 -10 67 -6 0 -10 -37 -10 -90z"/>
<path d="M2320 130 c0 -53 4 -90 10 -90 6 0 10 18 10 40 0 33 3 40 20 40 17 0
20 -7 20 -40 0 -22 5 -40 10 -40 6 0 10 37 10 90 0 53 -4 90 -10 90 -5 0 -10
-16 -10 -35 0 -28 -4 -35 -20 -35 -16 0 -20 7 -20 35 0 19 -4 35 -10 35 -6 0
-10 -37 -10 -90z"/>
<path d="M2451 183 c-14 -48 -14 -143 -1 -143 6 0 10 9 10 20 0 26 30 26 37 0
3 -11 10 -20 16 -20 13 0 3 131 -13 159 -17 32 -38 25 -49 -16z m43 -40 c6
-39 4 -43 -15 -43 -19 0 -21 4 -15 38 3 20 6 44 6 52 0 29 18 -6 24 -47z"/>
<path d="M2560 130 c0 -53 4 -90 10 -90 6 0 10 33 10 78 1 70 2 75 15 58 9
-12 15 -42 15 -78 0 -45 3 -58 15 -58 12 0 15 13 15 58 0 36 6 66 15 78 13 17
14 12 15 -58 0 -45 4 -78 10 -78 6 0 10 37 10 90 0 83 -2 90 -20 90 -11 0 -25
-11 -33 -26 l-13 -25 -12 25 c-7 16 -20 26 -32 26 -19 0 -20 -6 -20 -90z"/>
<path d="M2800 130 c0 -52 4 -90 10 -90 5 0 17 15 27 32 l18 33 3 -32 c2 -18
7 -33 13 -33 5 0 9 40 9 90 0 98 -15 121 -26 40 -4 -27 -13 -58 -20 -67 -12
-16 -13 -9 -14 50 0 38 -4 67 -10 67 -6 0 -10 -37 -10 -90z"/>
<path d="M3006 198 c-8 -13 -20 -52 -25 -88 -13 -81 -14 -100 -1 -100 6 0 10
7 10 15 0 10 11 15 35 15 24 0 35 -5 35 -15 0 -8 5 -15 10 -15 6 0 10 13 10
30 0 17 -4 30 -10 30 -6 0 -10 32 -10 75 0 68 -2 75 -20 75 -11 0 -26 -10 -34
-22z m34 -68 c0 -47 -3 -60 -15 -60 -18 0 -21 70 -5 101 17 30 20 23 20 -41z"/>
<path d="M3110 130 l0 -90 30 0 c20 0 30 5 30 15 0 8 -9 15 -20 15 -15 0 -20
7 -20 25 0 18 5 25 20 25 11 0 20 7 20 15 0 8 -9 15 -20 15 -13 0 -20 7 -20
20 0 13 7 20 20 20 11 0 20 7 20 15 0 10 -10 15 -30 15 l-30 0 0 -90z"/>
<path d="M3200 205 c0 -8 5 -15 10 -15 6 0 10 -32 10 -75 0 -43 4 -75 10 -75
6 0 10 32 10 75 0 60 3 75 15 75 8 0 15 7 15 15 0 10 -11 15 -35 15 -24 0 -35
-5 -35 -15z"/>
<path d="M3306 212 c-3 -5 -5 -35 -4 -68 1 -32 -2 -69 -6 -81 -6 -17 -3 -23 8
-23 11 0 16 9 16 28 0 16 7 37 15 48 13 18 14 15 15 -28 0 -36 4 -48 15 -48
12 0 15 17 15 90 l0 90 -34 0 c-19 0 -37 -4 -40 -8z m44 -37 c0 -16 -6 -25
-15 -25 -15 0 -21 31 -8 43 13 14 23 6 23 -18z"/>
<path d="M3420 130 c0 -53 4 -90 10 -90 6 0 10 33 10 78 1 70 2 75 15 58 9
-12 15 -42 15 -78 0 -45 3 -58 15 -58 12 0 15 13 15 58 0 36 6 66 15 78 13 17
14 12 15 -58 0 -45 4 -78 10 -78 6 0 10 37 10 90 0 83 -2 90 -20 90 -11 0 -25
-11 -33 -26 l-13 -25 -12 25 c-7 16 -20 26 -32 26 -19 0 -20 -6 -20 -90z"/>
<path d="M177 129 c-8 -29 4 -119 14 -119 5 0 9 13 9 29 0 16 4 41 10 55 6 17
6 26 0 26 -6 0 -10 7 -10 15 0 23 -17 18 -23 -6z"/>
</g>
</svg>
