<svg width="360" height="70" viewBox="0 0 360 70" fill="none" xmlns="http://www.w3.org/2000/svg">
<mask id="mask0_110_102" style="mask-type:alpha" maskUnits="userSpaceOnUse" x="0" y="0" width="360" height="70">
<g clip-path="url(#clip0_110_102)">
<path d="M33 0.000204923C33 1.3202 33 2.64021 33 4.00021C33.66 4.00021 34.32 4.00021 35 4.00021C34.505 2.02021 34.505 2.0202 34 0.000204923C43.2219 0.216037 50.8673 2.71557 57.625 9.18771C60 12.0002 60 12.0002 60 14.0002C60.66 14.0002 61.32 14.0002 62 14.0002C65.2263 20.2127 67.0637 25.9403 67 33.0002C66.67 33.9902 66.34 34.9802 66 36.0002C66.33 36.3302 66.66 36.6602 67 37.0002C66.5106 41.2087 65.4222 45.0179 64 49.0002C58.9372 48.8947 56.7263 48.0479 53.0625 44.5002C49.0506 40.6838 46.5026 40.0002 41 40.0002C40.01 40.4952 40.01 40.4952 39 41.0002C39.99 41.4952 39.99 41.4952 41 42.0002C41.7125 43.6478 42.374 45.3178 43 47.0002C43.3712 47.5983 43.7425 48.1965 44.125 48.8127C45.4836 52.2093 45.1213 55.3612 45 59.0002C44.34 59.0002 43.68 59.0002 43 59.0002C43.3092 60.4592 43.6225 61.9174 43.9375 63.3752C44.1115 64.1873 44.2855 64.9994 44.4648 65.8361C44.9233 68.0297 44.9233 68.0297 46 70.0002C43.36 70.0002 40.72 70.0002 38 70.0002C38 68.6802 38 67.3602 38 66.0002C37.34 66.0002 36.68 66.0002 36 66.0002C36.33 67.3202 36.66 68.6402 37 70.0002C33.04 70.0002 29.08 70.0002 25 70.0002C24.505 65.0502 24.505 65.0502 24 60.0002C23.01 60.0002 22.02 60.0002 21 60.0002C21 63.3002 21 66.6002 21 70.0002C19.68 70.0002 18.36 70.0002 17 70.0002C17 68.0202 17 66.0402 17 64.0002C16.34 63.6702 15.68 63.3402 15 63.0002C15.396 61.5154 15.8175 60.0373 16.25 58.5627C16.482 57.739 16.7141 56.9153 16.9531 56.0666C17.2986 55.3847 17.6441 54.7028 18 54.0002C18.6419 53.8442 19.2839 53.6883 19.9453 53.5275C22.2409 53.1894 22.2409 53.1894 23.4141 50.7502C24.0135 49.389 24.0135 49.389 24.625 48.0002C26.8135 43.0934 26.8135 43.0934 29 42.0002C25.8675 39.9118 24.6649 39.6388 21.0273 40.2463C17.5454 41.5411 14.9773 44.0482 12.1562 46.4104C9.49827 48.3701 7.28698 48.9159 4 49.0002C0.968455 38.693 -1.4767 28.0859 3.75781 18.0861C4.16773 17.3978 4.57765 16.7094 5 16.0002C5.38929 15.3118 5.77859 14.6235 6.17968 13.9143C10.5521 7.16154 17.909 2.29878 25.6953 0.312705C28.1575 -0.021157 30.5182 -0.0707043 33 0.000204923ZM37 2.00021C38 5.00021 38 5.00021 38 5.00021L37 2.00021ZM14 11.0002C14 11.6602 14 12.3202 14 13.0002C14.66 12.6702 15.32 12.3402 16 12.0002C15.34 11.6702 14.68 11.3402 14 11.0002ZM22 11.0002C22.33 11.9902 22.66 12.9802 23 14.0002C23.33 13.0102 23.66 12.0202 24 11.0002C23.34 11.0002 22.68 11.0002 22 11.0002ZM44 11.0002C45 15.0002 45 15.0002 45 15.0002L44 11.0002ZM53 11.0002C52.34 11.6602 51.68 12.3202 51 13.0002C51.99 13.0002 52.98 13.0002 54 13.0002C53.67 12.3402 53.34 11.6802 53 11.0002ZM11 14.0002C11 15.3202 11 16.6402 11 18.0002C11.66 18.0002 12.32 18.0002 13 18.0002C13.33 17.0102 13.66 16.0202 14 15.0002C13.01 14.6702 12.02 14.3402 11 14.0002ZM55 14.0002C54.67 15.6502 54.34 17.3002 54 19.0002C54.99 18.3402 55.98 17.6802 57 17.0002C57 16.0102 57 15.0202 57 14.0002C56.34 14.0002 55.68 14.0002 55 14.0002ZM32 16.0002C32.33 18.6402 32.66 21.2802 33 24.0002C33.33 24.0002 33.66 24.0002 34 24.0002C34.1668 21.0837 34.1668 21.0837 34 18.0002C33.34 17.3402 32.68 16.6802 32 16.0002ZM39 16.0002C40 18.0002 40 18.0002 40 18.0002L39 16.0002ZM28 17.0002C29 19.0002 29 19.0002 29 19.0002L28 17.0002ZM23 20.0002C24 22.0002 24 22.0002 24 22.0002L23 20.0002ZM43 21.0002C44 23.0002 44 23.0002 44 23.0002L43 21.0002ZM24 22.0002C25 24.0002 25 24.0002 25 24.0002L24 22.0002ZM37 22.0002C36.67 24.9702 36.34 27.9402 36 31.0002C38.2901 27.565 38.1784 26.0149 38 22.0002C37.67 22.0002 37.34 22.0002 37 22.0002ZM42 23.0002C43 26.0002 43 26.0002 43 26.0002L42 23.0002ZM25 24.0002C26 27.0002 26 27.0002 26 27.0002L25 24.0002ZM30 24.0002C31 28.0002 31 28.0002 31 28.0002L30 24.0002ZM11 40.0002C15 41.0002 15 41.0002 15 41.0002L11 40.0002ZM53 40.0002C57 41.0002 57 41.0002 57 41.0002L53 40.0002ZM8 42.0002C7.67 42.9902 7.34 43.9802 7 45.0002C7.66 45.0002 8.32 45.0002 9 45.0002C8.67 44.0102 8.34 43.0202 8 42.0002ZM58 43.0002C58 43.6602 58 44.3202 58 45.0002C58.99 45.3302 59.98 45.6602 61 46.0002C60.67 45.0102 60.34 44.0202 60 43.0002C59.34 43.0002 58.68 43.0002 58 43.0002ZM30 44.0002C31 48.0002 31 48.0002 31 48.0002L30 44.0002ZM27 66.0002C28 69.0002 28 69.0002 28 69.0002L27 66.0002ZM30 66.0002C31 68.0002 31 68.0002 31 68.0002L30 66.0002Z" fill="#848A6F"/>
<path d="M38 42C38.99 42 39.98 42 41 42C41.2887 42.7425 41.5775 43.485 41.875 44.25C42.8735 46.9083 42.8735 46.9083 44.125 48.8125C45.4837 52.2091 45.1213 55.361 45 59C44.34 59 43.68 59 43 59C43.3092 60.459 43.6225 61.9172 43.9375 63.375C44.1115 64.1871 44.2855 64.9992 44.4648 65.8359C44.9233 68.0295 44.9233 68.0295 46 70C43.36 70 40.72 70 38 70C38 68.68 38 67.36 38 66C37.34 66 36.68 66 36 66C36.33 67.32 36.66 68.64 37 70C33.04 70 29.08 70 25 70C24.67 66.7 24.34 63.4 24 60C23.01 60 22.02 60 21 60C21 63.3 21 66.6 21 70C19.68 70 18.36 70 17 70C17 68.02 17 66.04 17 64C16.34 63.67 15.68 63.34 15 63C15.396 61.5152 15.8175 60.0371 16.25 58.5625C16.598 57.3269 16.598 57.3269 16.9531 56.0664C17.2986 55.3845 17.6441 54.7026 18 54C18.9591 53.768 18.9591 53.768 19.9375 53.5312C22.2464 53.1844 22.2464 53.1844 23.4844 50.7148C24.1109 49.3401 24.1109 49.3401 24.75 47.9375C25.178 47.0184 25.6059 46.0993 26.0469 45.1523C26.3614 44.4421 26.6759 43.7318 27 43C27.99 43.33 28.98 43.66 30 44C30.9492 47.1602 30.9492 47.1602 31.6875 51.0625C31.9389 52.3529 32.1902 53.6432 32.4492 54.9727C32.631 55.9717 32.8127 56.9707 33 58C33.66 58 34.32 58 35 58C34.9478 57.1473 34.9478 57.1473 34.8945 56.2773C34.6977 50.6628 35.445 47.0034 38 42ZM27 66C28 69 28 69 28 69L27 66ZM30 66C31 68 31 68 31 68L30 66Z" fill="#0F9628"/>
<path d="M66 23C66.1955 24.6032 66.3811 26.2076 66.5625 27.8125C66.6669 28.7058 66.7713 29.5991 66.8789 30.5195C67 33 67 33 66 36C66.33 36.33 66.66 36.66 67 37C66.5106 41.2085 65.4222 45.0177 64 49C57.8244 48.8713 55.3419 46.8497 50.9336 42.6562C48.4898 40.563 46.1194 39.7019 43 39C43.5436 34.4339 44.5606 30.9205 47 27C49.6875 25.125 49.6875 25.125 52 24C52.33 24.33 52.66 24.66 53 25C54.4487 24.7443 55.8855 24.4198 57.3125 24.0625C60.4437 23.281 62.6992 23 66 23ZM53 40C57 41 57 41 57 41L53 40ZM58 43C58 43.66 58 44.32 58 45C58.99 45.33 59.98 45.66 61 46C60.67 45.01 60.34 44.02 60 43C59.34 43 58.68 43 58 43Z" fill="#86B968"/>
<path d="M268 6C269.98 6 271.96 6 274 6C274 13.92 274 21.84 274 30C274.99 30 275.98 30 277 30C277 22.08 277 14.16 277 6C278.98 6 280.96 6 283 6C283 13.92 283 21.84 283 30C283.66 30 284.32 30 285 30C285 33.63 285 37.26 285 41C283.35 41 281.7 41 280 41C280 39.35 280 37.7 280 36C276.04 36 272.08 36 268 36C268 26.1 268 16.2 268 6Z" fill="#009A22"/>
<path d="M2 23C6.381 23.5198 10.6853 24.0671 15 25C16.222 25.1296 16.222 25.1296 17.4688 25.2617C20 26 20 26 21.582 27.9258C21.9881 28.7134 22.3941 29.501 22.8125 30.3125C23.2314 31.0924 23.6504 31.8723 24.082 32.6758C25 35 25 35 25 39C23.8244 39.3713 22.6487 39.7425 21.4375 40.125C18.1437 41.3333 15.9389 42.7389 13.375 45.125C10.3834 47.9034 8.17259 48.7965 4 49C2.17143 42.7828 0.858863 37.3076 0.875 30.8125C0.872422 29.7671 0.869844 28.7216 0.867188 27.6445C1 25 1 25 2 23ZM11 40C15 41 15 41 15 41L11 40ZM8 42C7.67 42.99 7.34 43.98 7 45C7.66 45 8.32 45 9 45C8.67 44.01 8.34 43.02 8 42Z" fill="#F9A64D"/>
<path d="M16 5C21.7846 8.44615 21.7846 8.44615 22.875 11.25C22.9163 11.8275 22.9575 12.405 23 13C23.66 12.67 24.32 12.34 25 12C26.5 13.25 26.5 13.25 28 15C28 16.32 28 17.64 28 19C28.66 19 29.32 19 30 19C30.6381 23.0182 31.1352 26.9269 31 31C28.75 33.8125 28.75 33.8125 26 35C25.01 34.67 24.02 34.34 23 34C21.931 31.6975 20.9282 29.3628 20 27C17.5491 24.5491 11.6428 25.0036 8.32031 24.5977C5 24 5 24 2 22C5.39056 14.7166 8.57427 8.81894 16 5ZM14 11C14 11.66 14 12.32 14 13C14.66 12.67 15.32 12.34 16 12C15.34 11.67 14.68 11.34 14 11ZM11 14C11 15.32 11 16.64 11 18C11.66 18 12.32 18 13 18C13.33 17.01 13.66 16.02 14 15C13.01 14.67 12.02 14.34 11 14ZM23 20C24 22 24 22 24 22L23 20ZM24 22C25 24 25 24 25 24L24 22ZM25 24C26 27 26 27 26 27L25 24Z" fill="#CE838C"/>
<path d="M33 0.000142995C33 1.32014 33 2.64014 33 4.00014C33.66 4.00014 34.32 4.00014 35 4.00014C34.67 2.68014 34.34 1.36014 34 0.000142995C40.3027 0.367905 45.3325 1.1664 51 4.00014C49.799 7.60306 48.7619 8.042 45.6875 10.1251C40.8572 13.7171 38.8342 17.3437 37 23.0001C36.67 22.3401 36.34 21.6801 36 21.0001C35.34 21.0001 34.68 21.0001 34 21.0001C33.67 20.6701 33.34 20.3401 33 20.0001C33 21.6501 33 23.3001 33 25.0001C32.01 24.6701 31.02 24.3401 30 24.0001C29.1157 21.2178 28.5992 18.4305 28.0391 15.5665C27.2452 12.7861 27.2452 12.7861 24.5742 11.8087C23.7247 11.5419 22.8752 11.2751 22 11.0001C19.1875 8.50014 19.1875 8.50014 17 6.00014C17 5.34014 17 4.68014 17 4.00014C22.5055 1.05534 26.7742 -0.177738 33 0.000142995ZM37 2.00014C38 5.00014 38 5.00014 38 5.00014L37 2.00014Z" fill="#998ABD"/>
<path d="M238 6C239.98 6 241.96 6 244 6C244.33 11.28 244.66 16.56 245 22C245.66 16.72 246.32 11.44 247 6C248.98 6 250.96 6 253 6C253 15.9 253 25.8 253 36C251.02 36 249.04 36 247 36C246.67 35.01 246.34 34.02 246 33C245.34 33.99 244.68 34.98 244 36C242.02 36 240.04 36 238 36C238 26.1 238 16.2 238 6Z" fill="#009A22"/>
<path d="M152 6C153.98 6 155.96 6 158 6C158.33 10.95 158.66 15.9 159 21C159.66 16.05 160.32 11.1 161 6C162.98 6 164.96 6 167 6C167 15.9 167 25.8 167 36C165.02 36 163.04 36 161 36C160.67 34.68 160.34 33.36 160 32C159.34 33.32 158.68 34.64 158 36C156.02 36 154.04 36 152 36C152 26.1 152 16.2 152 6Z" fill="#009A22"/>
<path d="M113 6C114.98 6 116.96 6 119 6C119.33 10.95 119.66 15.9 120 21C120.66 16.05 121.32 11.1 122 6C123.98 6 125.96 6 128 6C128 15.9 128 25.8 128 36C126.02 36 124.04 36 122 36C121.67 34.68 121.34 33.36 121 32C120.34 33.32 119.68 34.64 119 36C117.02 36 115.04 36 113 36C113 26.1 113 16.2 113 6Z" fill="#009A22"/>
<path d="M304 6C305.98 6 307.96 6 310 6C310 9.63 310 13.26 310 17C310.99 17 311.98 17 313 17C313 13.37 313 9.74 313 6C314.98 6 316.96 6 319 6C319 15.9 319 25.8 319 36C317.02 36 315.04 36 313 36C313 31.71 313 27.42 313 23C312.01 23 311.02 23 310 23C310 27.29 310 31.58 310 36C308.02 36 306.04 36 304 36C304 26.1 304 16.2 304 6Z" fill="#009A22"/>
<path d="M74 6C75.98 6 77.96 6 80 6C80.33 8.97 80.66 11.94 81 15C81.66 12.03 82.32 9.06 83 6C84.98 6 86.96 6 89 6C88.8849 7.41751 88.7575 8.83401 88.625 10.25C88.5554 11.0389 88.4858 11.8278 88.4141 12.6406C88 15 88 15 86.875 17.0312C85.7782 18.9736 85.7782 18.9736 86.4609 21.0781C86.7626 21.7948 87.0642 22.5116 87.375 23.25C89.0655 27.7405 89.2603 31.2286 89 36C87.02 36 85.04 36 83 36C82.67 31.71 82.34 27.42 82 23C81.34 23 80.68 23 80 23C80 27.29 80 31.58 80 36C78.02 36 76.04 36 74 36C74 26.1 74 16.2 74 6Z" fill="#009A22"/>
<path d="M174 6C175.437 5.91869 176.874 5.86066 178.313 5.8125C179.513 5.76029 179.513 5.76029 180.738 5.70703C183 6 183 6 184.781 7.21875C186.357 9.52137 186.308 10.924 186.188 13.6875C186.16 14.4957 186.133 15.304 186.105 16.1367C186.071 16.7516 186.036 17.3665 186 18C184.02 18 182.04 18 180 18C180 16.02 180 14.04 180 12C179.01 12.495 179.01 12.495 178 13C178 18.28 178 23.56 178 29C178.66 29.33 179.32 29.66 180 30C180 27.36 180 24.72 180 22C181.98 22 183.96 22 186 22C186.081 23.7701 186.139 25.5412 186.188 27.3125C186.222 28.2986 186.257 29.2848 186.293 30.3008C186 33 186 33 184.738 34.832C181.69 36.88 178.529 36.5526 175 36C172.326 34.1884 172.041 33.1224 171 30C170.851 27.2363 170.769 24.5144 170.75 21.75C170.729 21.0114 170.709 20.2727 170.688 19.5117C170.65 14.2628 171.641 10.6924 174 6Z" fill="#009A22"/>
<path d="M137.094 5.76953C137.888 5.78371 138.682 5.79789 139.5 5.8125C140.691 5.82217 140.691 5.82217 141.906 5.83203C144 6 144 6 146 7C147.491 11.4725 147.491 15.5275 146 20C146.33 20.66 146.66 21.32 147 22C147.147 23.8084 147.221 25.6233 147.25 27.4375C147.289 28.8896 147.289 28.8896 147.328 30.3711C147 33 147 33 145.766 34.8203C142.463 37.0271 138.802 36.616 135 36C132.938 34.5 132.938 34.5 132 32C131.782 29.2796 131.863 26.7399 132 24C133.98 24 135.96 24 138 24C138.33 25.65 138.66 27.3 139 29C139.66 29 140.32 29 141 29C141 27.02 141 25.04 141 23C139.68 23 138.36 23 137 23C137 21.02 137 19.04 137 17C137.99 16.67 138.98 16.34 140 16C140.733 13.9849 140.733 13.9849 141 12C140.01 12.495 140.01 12.495 139 13C138.67 13.99 138.34 14.98 138 16C136.35 16 134.7 16 133 16C132.805 9.94531 132.805 9.94531 133 8C135 6 135 6 137.094 5.76953Z" fill="#009A22"/>
<path d="M339 6C350 6 350 6 353 8C354.064 11.1916 354.167 13.585 354.188 16.9375C354.202 17.9778 354.216 19.018 354.23 20.0898C354 22.9992 353.713 24.6481 352 27C348.375 27.75 348.375 27.75 345 28C345 30.64 345 33.28 345 36C343.02 36 341.04 36 339 36C339 26.1 339 16.2 339 6ZM345 12C345 15.3 345 18.6 345 22C345.99 21.67 346.98 21.34 348 21C348 18.36 348 15.72 348 13C347.01 12.67 346.02 12.34 345 12Z" fill="#009A22"/>
<path d="M93 6C96.96 6 100.92 6 105 6C108.314 10.4181 108.432 11.6816 108.438 17C108.457 18.2169 108.476 19.4338 108.496 20.6875C108 24 108 24 106.145 26.4219C103.555 28.3272 102.144 28.3493 99 28C99 30.64 99 33.28 99 36C97.02 36 95.04 36 93 36C93 26.1 93 16.2 93 6ZM99 12C99 15.3 99 18.6 99 22C99.99 21.67 100.98 21.34 102 21C102.685 18.1422 102.685 18.1422 103 15C102.34 14.01 101.68 13.02 101 12C100.34 12 99.68 12 99 12Z" fill="#009A22"/>
<path d="M191 6C192.65 6 194.3 6 196 6C196 9.63 196 13.26 196 17C197.32 17 198.64 17 200 17C200 13.37 200 9.74 200 6C201.65 6 203.3 6 205 6C205 15.9 205 25.8 205 36C203.35 36 201.7 36 200 36C200 31.71 200 27.42 200 23C198.68 23 197.36 23 196 23C196 27.29 196 31.58 196 36C194.35 36 192.7 36 191 36C191 26.1 191 16.2 191 6Z" fill="#009A22"/>
<path d="M211 6C212.65 6 214.3 6 216 6C216 9.3 216 12.6 216 16C217.114 16.1031 218.227 16.2062 219.375 16.3125C221.169 16.6528 221.169 16.6528 223 17C225.381 20.5712 225.269 22.2667 225.25 26.5C225.255 27.6447 225.26 28.7894 225.266 29.9688C225 33 225 33 223 36C219.04 36 215.08 36 211 36C211 26.1 211 16.2 211 6ZM217 22C215.584 23.1842 215.584 23.1842 215.938 26.5625C215.958 27.6969 215.979 28.8312 216 30C216.99 30 217.98 30 219 30C219.77 27.6547 219.77 27.6547 220 25C218.666 23.1645 218.666 23.1645 217 22Z" fill="#009A22"/>
<path d="M288 6C291.96 6 295.92 6 300 6C300 7.98 300 9.96 300 12C297.69 12 295.38 12 293 12C293 13.65 293 15.3 293 17C295.31 17 297.62 17 300 17C300 18.98 300 20.96 300 23C297.69 23 295.38 23 293 23C293 25.31 293 27.62 293 30C295.31 30 297.62 30 300 30C300 31.98 300 33.96 300 36C296.04 36 292.08 36 288 36C288 26.1 288 16.2 288 6Z" fill="#009A22"/>
<path d="M202 47C206.62 47 211.24 47 216 47C216 51.95 216 56.9 216 62C216.66 62 217.32 62 218 62C218 64.31 218 66.62 218 69C216.68 69 215.36 69 214 69C214 68.34 214 67.68 214 67C210.04 67 206.08 67 202 67C202 60.4 202 53.8 202 47Z" fill="#009A22"/>
<path d="M127 47C131.62 47 136.24 47 141 47C141 51.95 141 56.9 141 62C141.66 62 142.32 62 143 62C143 64.31 143 66.62 143 69C141.68 69 140.36 69 139 69C139 68.34 139 67.68 139 67C135.04 67 131.08 67 127 67C127 60.4 127 53.8 127 47Z" fill="#009A22"/>
<path d="M341 47C346 47 346 47 349 49C349.66 48.34 350.32 47.68 351 47C352.65 47 354.3 47 356 47C356 53.6 356 60.2 356 67C354.68 67 353.36 67 352 67C351.67 64.03 351.34 61.06 351 58C350.67 60.97 350.34 63.94 350 67C349.01 67 348.02 67 347 67C346.67 64.03 346.34 61.06 346 58C345.67 60.97 345.34 63.94 345 67C343.68 67 342.36 67 341 67C341 60.4 341 53.8 341 47Z" fill="#009A22"/>
<path d="M255 47C260 47 260 47 263 49C263.66 48.34 264.32 47.68 265 47C266.65 47 268.3 47 270 47C270 53.6 270 60.2 270 67C268.68 67 267.36 67 266 67C265.67 64.03 265.34 61.06 265 58C264.67 60.97 264.34 63.94 264 67C263.01 67 262.02 67 261 67C260.67 64.03 260.34 61.06 260 58C259.67 60.97 259.34 63.94 259 67C257.68 67 256.36 67 255 67C255 60.4 255 53.8 255 47Z" fill="#009A22"/>
<path d="M98 47C99.65 47 101.3 47 103 47C103.33 47.99 103.66 48.98 104 50C104.371 49.505 104.743 49.01 105.125 48.5C107 47 107 47 113 47C113 53.6 113 60.2 113 67C111.68 67 110.36 67 109 67C108.67 63.04 108.34 59.08 108 55C107.67 58.96 107.34 62.92 107 67C105.68 67 104.36 67 103 67C102.67 63.04 102.34 59.08 102 55C101.67 58.96 101.34 62.92 101 67C100.01 67 99.02 67 98 67C98 60.4 98 53.8 98 47Z" fill="#009A22"/>
<path d="M162 47C163.32 47 164.64 47 166 47C166.33 48.32 166.66 49.64 167 51C167.33 49.68 167.66 48.36 168 47C169.32 47 170.64 47 172 47C172.33 47.66 172.66 48.32 173 49C173.33 48.34 173.66 47.68 174 47C174.99 47 175.98 47 177 47C177.074 50.3425 177.065 52.8036 176 56C176.33 56.66 176.66 57.32 177 58C177.07 59.5402 177.085 61.0833 177.062 62.625C177.053 63.4423 177.044 64.2595 177.035 65.1016C177.024 65.728 177.012 66.3545 177 67C176.01 67 175.02 67 174 67C173.67 65.35 173.34 63.7 173 62C172.67 63.65 172.34 65.3 172 67C170.68 67 169.36 67 168 67C167.67 65.02 167.34 63.04 167 61C166.67 62.98 166.34 64.96 166 67C164.68 67 163.36 67 162 67C162.142 65.5621 162.289 64.1247 162.438 62.6875C162.519 61.887 162.6 61.0865 162.684 60.2617C163 58 163 58 164 55C163.37 53.3192 162.702 51.652 162 50C162 49.01 162 48.02 162 47Z" fill="#009A22"/>
<path d="M323 6C327.29 6 331.58 6 336 6C336 7.98 336 9.96 336 12C334.68 12 333.36 12 332 12C332 19.92 332 27.84 332 36C330.02 36 328.04 36 326 36C326 28.08 326 20.16 326 12C325.01 12 324.02 12 323 12C323 10.02 323 8.04 323 6Z" fill="#009A22"/>
<path d="M38 42C38.99 42 39.98 42 41 42C41.2887 42.7425 41.5775 43.485 41.875 44.25C42.8735 46.9083 42.8735 46.9083 44.125 48.8125C45.4837 52.2091 45.1213 55.361 45 59C44.34 59 43.68 59 43 59C43.3092 60.459 43.6225 61.9172 43.9375 63.375C44.1115 64.1871 44.2855 64.9992 44.4648 65.8359C44.9233 68.0295 44.9233 68.0295 46 70C43.36 70 40.72 70 38 70C37.34 67.03 36.68 64.06 36 61C35.34 61.99 34.68 62.98 34 64C34.5945 48.0706 34.5945 48.0706 38 42Z" fill="#009923"/>
<path d="M33 0.000142995C33 1.32014 33 2.64014 33 4.00014C33.66 4.00014 34.32 4.00014 35 4.00014C34.125 8.87514 34.125 8.87514 33 10.0001C32.9269 12.5306 32.9075 15.0332 32.9375 17.5626C32.942 18.2736 32.9465 18.9845 32.9512 19.7169C32.963 21.478 32.9809 23.2391 33 25.0001C32.01 24.6701 31.02 24.3401 30 24.0001C29.1157 21.2178 28.5992 18.4305 28.0391 15.5665C27.2452 12.7861 27.2452 12.7861 24.5742 11.8087C23.7247 11.5419 22.8752 11.2751 22 11.0001C19.1875 8.50014 19.1875 8.50014 17 6.00014C17 5.34014 17 4.68014 17 4.00014C22.5055 1.05534 26.7742 -0.177738 33 0.000142995Z" fill="#BB88A7"/>
<path d="M301 47C302.98 47 304.96 47 307 47C307.33 54.26 307.66 61.52 308 69C307.01 69 306.02 69 305 69C305 68.34 305 67.68 305 67C303.35 67 301.7 67 300 67C300 67.66 300 68.32 300 69C298.68 69 297.36 69 296 69C295.49 61.5207 296.809 53.2866 301 47ZM302 54C301.67 56.64 301.34 59.28 301 62C301.66 62 302.32 62 303 62C303 59.36 303 56.72 303 54C302.67 54 302.34 54 302 54Z" fill="#009A22"/>
<path d="M8 12C8.99 12.33 9.98 12.66 11 13C11 14.65 11 16.3 11 18C11.66 18 12.32 18 13 18C13.33 17.01 13.66 16.02 14 15C20.1631 16.0667 20.1631 16.0667 22.3906 18.5508C23.9748 21.1557 25.0186 23.2948 24.9375 26.375C24 28 24 28 21 29C20.34 28.01 19.68 27.02 19 26C15.7605 25.2665 15.7605 25.2665 12.0625 24.9375C5.30574 24.2038 5.30574 24.2038 2 22C2.61996 20.7059 3.24616 19.4148 3.875 18.125C4.22305 17.4057 4.57109 16.6864 4.92969 15.9453C6 14 6 14 8 12Z" fill="#F58F7E"/>
<path d="M227 6C228.98 6 230.96 6 233 6C233 15.9 233 25.8 233 36C231.02 36 229.04 36 227 36C227 26.1 227 16.2 227 6Z" fill="#009A22"/>
<path d="M279 47C280.32 47 281.64 47 283 47C283.33 49.31 283.66 51.62 284 54C284.33 51.69 284.66 49.38 285 47C286.32 47 287.64 47 289 47C289 53.6 289 60.2 289 67C287.68 67 286.36 67 285 67C284.67 66.34 284.34 65.68 284 65C283.67 65.66 283.34 66.32 283 67C281.68 67 280.36 67 279 67C279 60.4 279 53.8 279 47Z" fill="#009A22"/>
<path d="M219 47C220.32 47 221.64 47 223 47C223.33 49.31 223.66 51.62 224 54C224.33 51.69 224.66 49.38 225 47C226.32 47 227.64 47 229 47C229 53.6 229 60.2 229 67C227.68 67 226.36 67 225 67C224.67 66.34 224.34 65.68 224 65C223.67 65.66 223.34 66.32 223 67C221.68 67 220.36 67 219 67C219 60.4 219 53.8 219 47Z" fill="#009A22"/>
<path d="M144 47C145.32 47 146.64 47 148 47C148.33 49.64 148.66 52.28 149 55C149.33 52.36 149.66 49.72 150 47C151.32 47 152.64 47 154 47C154 53.6 154 60.2 154 67C152.35 66.67 150.7 66.34 149 66C147.35 66.33 145.7 66.66 144 67C144 60.4 144 53.8 144 47Z" fill="#009A22"/>
<path d="M231 47C232.32 47 233.64 47 235 47C235 49.31 235 51.62 235 54C235.66 54 236.32 54 237 54C237 51.69 237 49.38 237 47C238.32 47 239.64 47 241 47C241 53.6 241 60.2 241 67C239.68 67 238.36 67 237 67C237 64.03 237 61.06 237 58C236.34 58 235.68 58 235 58C235 60.97 235 63.94 235 67C233.68 67 232.36 67 231 67C231 60.4 231 53.8 231 47Z" fill="#009A22"/>
<path d="M117 47C119.31 47.33 121.62 47.66 124 48C125.059 51.1766 125.2 53.5999 125.25 56.9375C125.289 58.4979 125.289 58.4979 125.328 60.0898C124.964 63.3172 124.164 64.6371 122 67C119.062 66.625 119.062 66.625 116 66C114.522 63.0441 114.829 60.35 114.812 57.0625C114.798 55.816 114.784 54.5695 114.77 53.2852C115 50 115 50 117 47ZM119 52C119 55.3 119 58.6 119 62C119.66 62 120.32 62 121 62C121 58.7 121 55.4 121 52C120.34 52 119.68 52 119 52Z" fill="#009A22"/>
<path d="M93 47.0002C95.4451 50.6678 95.2989 52.6345 95.3125 57.0002C95.3293 58.2377 95.3461 59.4752 95.3633 60.7502C95 64.0002 95 64.0002 93.6407 65.9455C92 67.0002 92 67.0002 89.4375 66.8752C87 66.0002 87 66.0002 85 63.0002C84.7696 60.1877 84.7696 60.1877 84.8125 57.0002C84.819 55.9483 84.8254 54.8964 84.8321 53.8127C85 51.0002 85 51.0002 86 48.0002C88.5343 46.733 90.1944 46.7196 93 47.0002ZM89 52.0002C89 55.3002 89 58.6002 89 62.0002C89.66 62.0002 90.32 62.0002 91 62.0002C91 58.7002 91 55.4002 91 52.0002C90.34 52.0002 89.68 52.0002 89 52.0002Z" fill="#009A22"/>
<path d="M246 47C247.32 47 248.64 47 250 47C252.928 53.6363 253.143 59.8656 253 67C251.68 67 250.36 67 249 67C249 65.68 249 64.36 249 63C248.34 63 247.68 63 247 63C247 64.32 247 65.64 247 67C245.68 67 244.36 67 243 67C242.631 59.6889 243.185 53.7874 246 47ZM247 54C247 55.65 247 57.3 247 59C247.66 59 248.32 59 249 59C248.67 57.35 248.34 55.7 248 54C247.67 54 247.34 54 247 54Z" fill="#009A22"/>
<path d="M331 47C333.31 47 335.62 47 338 47C338 53.6 338 60.2 338 67C337.01 67 336.02 67 335 67C334.67 64.69 334.34 62.38 334 60C333.34 62.31 332.68 64.62 332 67C331.01 67 330.02 67 329 67C328.946 64.0414 328.906 61.0838 328.875 58.125C328.858 57.2832 328.841 56.4415 328.824 55.5742C328.818 54.7686 328.811 53.9629 328.805 53.1328C328.789 52.0174 328.789 52.0174 328.773 50.8794C329 49 329 49 331 47ZM333 51C333 51.99 333 52.98 333 54C333.66 54 334.32 54 335 54C335 53.01 335 52.02 335 51C334.34 51 333.68 51 333 51Z" fill="#009A22"/>
<path d="M190 47C191.32 47 192.64 47 194 47C194 49.31 194 51.62 194 54C194.66 54 195.32 54 196 54C196 51.69 196 49.38 196 47C196.99 47 197.98 47 199 47C199 53.6 199 60.2 199 67C198.01 67 197.02 67 196 67C196 64.03 196 61.06 196 58C195.34 58 194.68 58 194 58C194 60.97 194 63.94 194 67C192.68 67 191.36 67 190 67C190 60.4 190 53.8 190 47Z" fill="#009A22"/>
<path d="M74 47C76.97 47 79.94 47 83 47C83 53.6 83 60.2 83 67C81.68 67 80.36 67 79 67C79 61.72 79 56.44 79 51C78.34 51 77.68 51 77 51C77 56.28 77 61.56 77 67C76.01 67 75.02 67 74 67C74 60.4 74 53.8 74 47Z" fill="#009A22"/>
<path d="M310 47C312.64 47 315.28 47 318 47C318 48.32 318 49.64 318 51C316.68 51 315.36 51 314 51C314 51.99 314 52.98 314 54C315.32 54 316.64 54 318 54C318 55.32 318 56.64 318 58C316.68 58 315.36 58 314 58C314 59.32 314 60.64 314 62C315.32 62 316.64 62 318 62C318 63.65 318 65.3 318 67C315.36 67 312.72 67 310 67C310 60.4 310 53.8 310 47Z" fill="#009A22"/>
<path d="M180 47C182.31 47 184.62 47 187 47C187 48.32 187 49.64 187 51C186.01 51 185.02 51 184 51C184 51.99 184 52.98 184 54C185.32 54 186.64 54 188 54C188 55.32 188 56.64 188 58C186.68 58 185.36 58 184 58C184 59.32 184 60.64 184 62C185.32 62 186.64 62 188 62C188 63.65 188 65.3 188 67C185.36 67 182.72 67 180 67C180 60.4 180 53.8 180 47Z" fill="#009A22"/>
<path d="M319 47C321.64 47 324.28 47 327 47C327 48.32 327 49.64 327 51C326.34 51 325.68 51 325 51C325 56.28 325 61.56 325 67C323.68 67 322.36 67 321 67C321 61.72 321 56.44 321 51C320.34 51 319.68 51 319 51C319 49.68 319 48.36 319 47Z" fill="#009A22"/>
<path d="M34 21C34.66 21 35.32 21 36 21C36.841 25.018 37.054 28.018 36 32C35.4019 32.1031 34.8037 32.2062 34.1875 32.3125C31.6368 33.1141 30.6331 33.9003 29 36C28.2855 38.1033 28.2855 38.1033 28 40C27.01 39.67 26.02 39.34 25 39C25.4977 35.3173 26.0629 33.3497 29 31C29.66 30.67 30.32 30.34 31 30C31 28.35 31 26.7 31 25C31.66 24.67 32.32 24.34 33 24C33.33 23.01 33.66 22.02 34 21Z" fill="#A57A67"/>
<path d="M241 0C241.99 0 242.98 0 244 0C244 0.66 244 1.32 244 2C244.99 2 245.98 2 247 2C247 1.34 247 0.68 247 0C247.99 0 248.98 0 250 0C249.67 1.65 249.34 3.3 249 5C246.688 5.6875 246.688 5.6875 244 6C242.188 4.75 242.188 4.75 241 3C241 2.01 241 1.02 241 0Z" fill="#009A22"/>
<path d="M26 26C28 28 28 28 28.125 30.625C28.0837 31.4087 28.0425 32.1925 28 33C26.02 33.99 26.02 33.99 24 35C23.34 33.35 22.68 31.7 22 30C23.32 28.68 24.64 27.36 26 26Z" fill="#D1846D"/>
<path d="M21 32C21.66 32 22.32 32 23 32C25 35 25 35 25 39C22.69 39.66 20.38 40.32 18 41C18.99 38.03 19.98 35.06 21 32Z" fill="#DA9550"/>
<path d="M34 21C34.66 21 35.32 21 36 21C37.125 26.75 37.125 26.75 36 29C34.35 28.67 32.7 28.34 31 28C31 27.01 31 26.02 31 25C31.66 24.67 32.32 24.34 33 24C33.33 23.01 33.66 22.02 34 21Z" fill="#A28088"/>
<path d="M28 31C28.33 31 28.66 31 29 31C28.67 33.97 28.34 36.94 28 40C27.01 39.67 26.02 39.34 25 39C25.5472 35.6254 26.0549 33.9176 28 31Z" fill="#B57F5B"/>
</g>
</mask>
<g mask="url(#mask0_110_102)">
<rect x="-37" y="-42" width="450" height="138" fill="#FFF5EF"/>
</g>
<defs>
<clipPath id="clip0_110_102">
<rect width="360" height="70" fill="white"/>
</clipPath>
</defs>
</svg>
